<?xml version="1.0" encoding="utf-8"?>
<!-- Svg Vector Icons : http://www.onlinewebfonts.com/icon -->
<!DOCTYPE svg PUBLIC "-//W3C//DTD SVG 1.1//EN" "http://www.w3.org/Graphics/SVG/1.1/DTD/svg11.dtd">
<svg version="1.1" xmlns="http://www.w3.org/2000/svg" xmlns:xlink="http://www.w3.org/1999/xlink" x="0px" y="0px" viewBox="0 0 1000 1000" enable-background="new 0 0 1000 1000" xml:space="preserve">
<metadata> Svg Vector Icons : http://www.onlinewebfonts.com/icon </metadata>
<g><g transform="translate(0.000000,511.000000) scale(0.100000,-0.100000)"><path d="M4923,4989.5c-51.4-24.7-2.1,57.5-768.5-1265.9l-622.7-1074.7H2210.5c-826.1,0-1343.9-8.2-1376.8-20.5C772,2605.8,714.5,2486.6,735,2429c6.2-20.6,306.2-550.7,665.8-1179.5l653.5-1144.6l-651.4-1146.7C1043.3-1674.7,743.2-2206.9,735-2225.4c-6.2-20.5-2.1-63.7,10.3-98.6c43.1-125.4,8.2-123.3,1461.1-123.3h1325.4l641.1-1103.5c353.5-608.3,665.8-1136.4,692.5-1171.3c41.1-55.5,63.7-67.8,127.4-67.8c41.1,0,92.5,12.3,111,26.7c18.5,12.3,332.9,538.4,698.7,1165.2l663.8,1140.5l1348.1,10.3l1348,10.3l53.4,49.3c34.9,32.9,53.4,71.9,53.4,113c0,43.2-195.2,402.8-659.6,1220.6C8099.9-158.2,7952,115.2,7968.4,139.8c10.3,18.5,308.2,538.4,659.6,1154.9c443.9,776.8,641.2,1140.5,641.2,1183.6c0,32.9-18.5,80.2-41.1,104.8c-24.7,24.7-45.2,47.3-47.3,49.3c-2.1,4.1-614.4,10.3-1358.3,16.4l-1354.2,10.3l-641.2,1109.7c-353.5,610.3-669.9,1140.5-704.8,1177.5C5058.6,5014.2,4999,5026.5,4923,4989.5z M5632,3399c320.6-552.8,600-1025.4,620.6-1048c37-39,71.9-41.1,1290.5-51.4l1251.5-10.3l-608.3-1064.5c-384.3-672-608.3-1085-608.3-1120c0-34.9,224-452.1,608.3-1124.1l610.3-1068.6L7543.1-2098c-1218.6-10.3-1253.5-12.4-1290.5-51.4c-22.6-22.6-310.3-507.6-641.1-1078.8c-330.8-571.3-604.1-1039.8-606.2-1043.9c-2.1-2.1-283.6,476.7-626.8,1064.5c-341.1,587.7-639.1,1078.8-659.6,1089.1c-22.6,12.3-509.6,20.6-1270,20.6c-680.2,0-1235,4.1-1235,10.3c0,4.1,273.3,487,606.2,1072.7c394.6,692.5,606.2,1082.9,606.2,1119.9c0,39.1-211.7,427.4-606.2,1117.9c-332.9,583.6-606.2,1064.5-606.2,1068.6c0,4.1,559,8.2,1241.2,8.2c1152.8,0,1243.2,2.1,1282.3,37c22.6,18.5,298,478.8,610.3,1021.3c729.5,1263.8,647.3,1130.2,678.1,1085C5038.1,4422.3,5311.4,3953.8,5632,3399z"/></g></g>
</svg>